<?xml version="1.0" encoding="UTF-8" standalone="no"?>
<!DOCTYPE svg PUBLIC "-//W3C//DTD SVG 1.1//EN"
 "http://www.w3.org/Graphics/SVG/1.1/DTD/svg11.dtd">
<!-- Generated by graphviz version 2.38.0 (20140413.2041)
 -->
<!-- Title: G Pages: 1 -->
<svg width="802pt" height="336pt"
 viewBox="0.00 0.00 801.98 336.00" xmlns="http://www.w3.org/2000/svg" xmlns:xlink="http://www.w3.org/1999/xlink">
<g id="graph0" class="graph" transform="scale(1 1) rotate(0) translate(4 332)">
<title>G</title>
<polygon fill="white" stroke="none" points="-4,4 -4,-332 797.979,-332 797.979,4 -4,4"/>
<!-- c104 -->
<g id="node1" class="node"><title>c104</title>
<g id="a_node1"><a xlink:href="./Cms_builder.html" xlink:title="&lt;TABLE&gt;">
</a>
</g>
<g id="a_node1_0"><a xlink:href="./Cms_builder.html" xlink:title="cms.Cms_builder" target="_parent">
<polygon fill="lemonChiffon" stroke="none" points="259.479,-227 259.479,-245 328.479,-245 328.479,-227 259.479,-227"/>
<polygon fill="none" stroke="black" points="259.979,-227 259.979,-245 328.979,-245 328.979,-227 259.979,-227"/>
<text text-anchor="start" x="263.634" y="-233" font-family="Helvetica,sans-Serif" font-size="10.00"> Cms_builder </text>
</a>
</g>
<g><a xlink:href="./Cms_builder.html" xlink:title="&lt;TABLE&gt;">
</a>
</g>
</g>
<!-- c105 -->
<g id="node2" class="node"><title>c105</title>
<g id="a_node2"><a xlink:href="./agents/Producer.html" xlink:title="&lt;TABLE&gt;">
</a>
</g>
<g id="a_node2_1"><a xlink:href="./agents/Producer.html" xlink:title="cms.agents.Producer" target="_parent">
<polygon fill="none" stroke="black" points="99.9787,-81 99.9787,-99 153.979,-99 153.979,-81 99.9787,-81"/>
<text text-anchor="start" x="103.912" y="-87" font-family="Helvetica,sans-Serif" font-size="10.00"> Producer </text>
</a>
</g>
<g><a xlink:href="./agents/Producer.html" xlink:title="&lt;TABLE&gt;">
</a>
</g>
</g>
<!-- c104&#45;&gt;c105 -->
<g id="edge2" class="edge"><title>c104:p&#45;&gt;c105:p</title>
<path fill="none" stroke="black" d="M259.267,-229.887C228.703,-223.64 184.97,-210.185 157.979,-182 138.783,-161.955 131.445,-129.555 128.659,-109.308"/>
<polygon fill="black" stroke="black" points="127.512,-99.2213 133.113,-108.648 128.077,-104.189 128.642,-109.157 128.642,-109.157 128.642,-109.157 128.077,-104.189 124.171,-109.666 127.512,-99.2213 127.512,-99.2213"/>
</g>
<!-- c107 -->
<g id="node3" class="node"><title>c107</title>
<g id="a_node3"><a xlink:href="./agents/Market.html" xlink:title="&lt;TABLE&gt;">
</a>
</g>
<g id="a_node3_2"><a xlink:href="./agents/Market.html" xlink:title="cms.agents.Market" target="_parent">
<polygon fill="none" stroke="black" points="21.9787,-81 21.9787,-99 65.9787,-99 65.9787,-81 21.9787,-81"/>
<text text-anchor="start" x="25.9196" y="-87" font-family="Helvetica,sans-Serif" font-size="10.00"> Market </text>
</a>
</g>
<g><a xlink:href="./agents/Market.html" xlink:title="&lt;TABLE&gt;">
</a>
</g>
</g>
<!-- c104&#45;&gt;c107 -->
<g id="edge4" class="edge"><title>c104:p&#45;&gt;c107:p</title>
<path fill="none" stroke="black" d="M259.181,-228.435C225.331,-220.945 173.388,-206.456 133.979,-182 101.397,-161.781 71.8448,-127.47 56.0434,-107.253"/>
<polygon fill="black" stroke="black" points="49.7893,-99.0576 59.4332,-104.277 52.8226,-103.032 55.8558,-107.007 55.8558,-107.007 55.8558,-107.007 52.8226,-103.032 52.2784,-109.737 49.7893,-99.0576 49.7893,-99.0576"/>
</g>
<!-- c108 -->
<g id="node4" class="node"><title>c108</title>
<g id="a_node4"><a xlink:href="./agents/Buyer.html" xlink:title="&lt;TABLE&gt;">
</a>
</g>
<g id="a_node4_3"><a xlink:href="./agents/Buyer.html" xlink:title="cms.agents.Buyer" target="_parent">
<polygon fill="none" stroke="black" points="175.979,-154 175.979,-172 214.979,-172 214.979,-154 175.979,-154"/>
<text text-anchor="start" x="179.639" y="-160" font-family="Helvetica,sans-Serif" font-size="10.00"> Buyer </text>
</a>
</g>
<g><a xlink:href="./agents/Buyer.html" xlink:title="&lt;TABLE&gt;">
</a>
</g>
</g>
<!-- c104&#45;&gt;c108 -->
<g id="edge3" class="edge"><title>c104:p&#45;&gt;c108:p</title>
<path fill="none" stroke="black" d="M282.622,-226.855C265.987,-214.925 234.769,-192.537 214.433,-177.952"/>
<polygon fill="black" stroke="black" points="206.203,-172.05 216.952,-174.221 210.266,-174.964 214.329,-177.878 214.329,-177.878 214.329,-177.878 210.266,-174.964 211.707,-181.534 206.203,-172.05 206.203,-172.05"/>
</g>
<!-- c117 -->
<g id="node6" class="node"><title>c117</title>
<g id="a_node6"><a xlink:href="http://docs.oracle.com/javase/7/docs/api/com/vividsolutions/jts/geom/Coordinate.html" xlink:title="&lt;TABLE&gt;">
</a>
</g>
<g id="a_node6_4"><a xlink:href="http://docs.oracle.com/javase/7/docs/api/com/vividsolutions/jts/geom/Coordinate.html" xlink:title="com.vividsolutions.jts.geom.Coordinate" target="_parent">
<polygon fill="none" stroke="black" points="296.979,-154 296.979,-172 358.979,-172 358.979,-154 296.979,-154"/>
<text text-anchor="start" x="300.74" y="-160" font-family="Helvetica,sans-Serif" font-size="10.00"> Coordinate </text>
</a>
</g>
<g><a xlink:href="http://docs.oracle.com/javase/7/docs/api/com/vividsolutions/jts/geom/Coordinate.html" xlink:title="&lt;TABLE&gt;">
</a>
</g>
</g>
<!-- c104&#45;&gt;c117 -->
<g id="edge5" class="edge"><title>c104:p&#45;&gt;c117:p</title>
<path fill="none" stroke="black" d="M297.879,-226.855C303.156,-215.835 312.708,-195.889 319.639,-181.416"/>
<polygon fill="black" stroke="black" points="324.124,-172.05 323.864,-183.012 321.964,-176.559 319.805,-181.069 319.805,-181.069 319.805,-181.069 321.964,-176.559 315.746,-179.125 324.124,-172.05 324.124,-172.05"/>
</g>
<!-- c118 -->
<g id="node7" class="node"><title>c118</title>
<g id="a_node7"><a xlink:href="http://docs.oracle.com/javase/7/docs/api/com/vividsolutions/jts/geom/Point.html" xlink:title="&lt;TABLE&gt;">
</a>
</g>
<g id="a_node7_5"><a xlink:href="http://docs.oracle.com/javase/7/docs/api/com/vividsolutions/jts/geom/Point.html" xlink:title="com.vividsolutions.jts.geom.Point" target="_parent">
<polygon fill="none" stroke="black" points="393.979,-154 393.979,-172 429.979,-172 429.979,-154 393.979,-154"/>
<text text-anchor="start" x="397.804" y="-160" font-family="Helvetica,sans-Serif" font-size="10.00"> Point </text>
</a>
</g>
<g><a xlink:href="http://docs.oracle.com/javase/7/docs/api/com/vividsolutions/jts/geom/Point.html" xlink:title="&lt;TABLE&gt;">
</a>
</g>
</g>
<!-- c104&#45;&gt;c118 -->
<g id="edge6" class="edge"><title>c104:p&#45;&gt;c118:p</title>
<path fill="none" stroke="black" d="M307.515,-226.855C327.609,-214.765 365.556,-191.932 389.761,-177.368"/>
<polygon fill="black" stroke="black" points="398.6,-172.05 392.352,-181.061 394.316,-174.627 390.032,-177.205 390.032,-177.205 390.032,-177.205 394.316,-174.627 387.712,-173.349 398.6,-172.05 398.6,-172.05"/>
</g>
<!-- c119 -->
<g id="node8" class="node"><title>c119</title>
<g id="a_node8"><a xlink:href="http://docs.oracle.com/javase/7/docs/api/repast/simphony/gis/display/RepastMapLayer.html" xlink:title="&lt;TABLE&gt;">
</a>
</g>
<g id="a_node8_6"><a xlink:href="http://docs.oracle.com/javase/7/docs/api/repast/simphony/gis/display/RepastMapLayer.html" xlink:title="repast.simphony.gis.display.RepastMapLayer" target="_parent">
<polygon fill="none" stroke="black" points="465.979,-154 465.979,-172 554.979,-172 554.979,-154 465.979,-154"/>
<text text-anchor="start" x="469.624" y="-160" font-family="Helvetica,sans-Serif" font-size="10.00"> RepastMapLayer </text>
</a>
</g>
<g><a xlink:href="http://docs.oracle.com/javase/7/docs/api/repast/simphony/gis/display/RepastMapLayer.html" xlink:title="&lt;TABLE&gt;">
</a>
</g>
</g>
<!-- c104&#45;&gt;c119 -->
<g id="edge7" class="edge"><title>c104:p&#45;&gt;c119:p</title>
<path fill="none" stroke="black" d="M318.337,-226.993C356.823,-214.343 431.823,-189.69 475.719,-175.261"/>
<polygon fill="black" stroke="black" points="485.378,-172.086 477.284,-179.484 480.628,-173.648 475.878,-175.209 475.878,-175.209 475.878,-175.209 480.628,-173.648 474.473,-170.934 485.378,-172.086 485.378,-172.086"/>
</g>
<!-- c120 -->
<g id="node9" class="node"><title>c120</title>
<g id="a_node9"><a xlink:href="http://docs.oracle.com/javase/7/docs/api/java/util/List.html" xlink:title="&lt;TABLE&gt;">
</a>
</g>
<g id="a_node9_7"><a xlink:href="http://docs.oracle.com/javase/7/docs/api/java/util/List.html" xlink:title="java.util.List" target="_parent">
<polygon fill="none" stroke="black" points="588.979,-148 588.979,-178 651.979,-178 651.979,-148 588.979,-148"/>
<text text-anchor="start" x="592.962" y="-166" font-family="Helvetica,sans-Serif" font-size="10.00"> «interface» </text>
<text text-anchor="start" x="600.745" y="-154" font-family="Helvetica,sans-Serif" font-size="10.00"> List&lt;E&gt; </text>
</a>
</g>
<g><a xlink:href="http://docs.oracle.com/javase/7/docs/api/java/util/List.html" xlink:title="&lt;TABLE&gt;">
</a>
</g>
</g>
<!-- c104&#45;&gt;c120 -->
<g id="edge8" class="edge"><title>c104:p&#45;&gt;c120:p</title>
<path fill="none" stroke="black" d="M328.654,-230.331C381.694,-222.755 485.882,-206.16 571.979,-182 574.256,-181.361 576.578,-180.66 578.911,-179.918"/>
<polygon fill="black" stroke="black" points="588.474,-176.683 580.443,-184.151 583.738,-178.285 579.001,-179.888 579.001,-179.888 579.001,-179.888 583.738,-178.285 577.559,-175.625 588.474,-176.683 588.474,-176.683"/>
</g>
<!-- c121 -->
<g id="node10" class="node"><title>c121</title>
<g id="a_node10"><a xlink:href="http://docs.oracle.com/javase/7/docs/api/java/lang/String.html" xlink:title="&lt;TABLE&gt;">
</a>
</g>
<g id="a_node10_8"><a xlink:href="http://docs.oracle.com/javase/7/docs/api/java/lang/String.html" xlink:title="java.lang.String" target="_parent">
<polygon fill="none" stroke="black" points="48.9787,-9 48.9787,-27 87.9787,-27 87.9787,-9 48.9787,-9"/>
<text text-anchor="start" x="52.6389" y="-15" font-family="Helvetica,sans-Serif" font-size="10.00"> String </text>
</a>
</g>
<g><a xlink:href="http://docs.oracle.com/javase/7/docs/api/java/lang/String.html" xlink:title="&lt;TABLE&gt;">
</a>
</g>
</g>
<!-- c104&#45;&gt;c121 -->
<g id="edge9" class="edge"><title>c104:p&#45;&gt;c121:p</title>
<path fill="none" stroke="black" d="M259.349,-233.443C192.319,-228.236 47.6804,-205.668 4.97873,-108 -1.43085,-93.3399 -1.77394,-86.5052 4.97873,-72 12.8961,-54.9928 29.2551,-41.4933 43.3185,-32.3751"/>
<polygon fill="black" stroke="black" points="52.1169,-27.023 45.9121,-36.0646 47.8452,-29.6215 43.5734,-32.22 43.5734,-32.22 43.5734,-32.22 47.8452,-29.6215 41.2348,-28.3755 52.1169,-27.023 52.1169,-27.023"/>
</g>
<!-- c122 -->
<g id="node11" class="node"><title>c122</title>
<g id="a_node11"><a xlink:href="http://docs.oracle.com/javase/7/docs/api/java/util/ArrayList.html" xlink:title="&lt;TABLE&gt;">
</a>
</g>
<g id="a_node11_9"><a xlink:href="http://docs.oracle.com/javase/7/docs/api/java/util/ArrayList.html" xlink:title="java.util.ArrayList" target="_parent">
<polygon fill="none" stroke="black" points="168.979,-9 168.979,-27 238.979,-27 238.979,-9 168.979,-9"/>
<text text-anchor="start" x="172.572" y="-15" font-family="Helvetica,sans-Serif" font-size="10.00"> ArrayList&lt;E&gt; </text>
</a>
</g>
<g><a xlink:href="http://docs.oracle.com/javase/7/docs/api/java/util/ArrayList.html" xlink:title="&lt;TABLE&gt;">
</a>
</g>
</g>
<!-- c104&#45;&gt;c122 -->
<g id="edge10" class="edge"><title>c104:p&#45;&gt;c122:p</title>
<path fill="none" stroke="black" d="M290.561,-226.796C277.39,-195.188 229.753,-80.8581 211.327,-36.6352"/>
<polygon fill="black" stroke="black" points="207.4,-27.2119 215.4,-34.7119 209.323,-31.8273 211.247,-36.4427 211.247,-36.4427 211.247,-36.4427 209.323,-31.8273 207.093,-38.1735 207.4,-27.2119 207.4,-27.2119"/>
</g>
<!-- c123 -->
<g id="node12" class="node"><title>c123</title>
<g id="a_node12"><a xlink:href="http://docs.oracle.com/javase/7/docs/api/repast/simphony/util/collections/IndexedIterable.html" xlink:title="&lt;TABLE&gt;">
</a>
</g>
<g id="a_node12_10"><a xlink:href="http://docs.oracle.com/javase/7/docs/api/repast/simphony/util/collections/IndexedIterable.html" xlink:title="repast.simphony.util.collections.IndexedIterable" target="_parent">
<polygon fill="none" stroke="black" points="685.979,-148 685.979,-178 785.979,-178 785.979,-148 685.979,-148"/>
<text text-anchor="start" x="708.462" y="-166" font-family="Helvetica,sans-Serif" font-size="10.00"> «interface» </text>
<text text-anchor="start" x="689.836" y="-154" font-family="Helvetica,sans-Serif" font-size="10.00"> IndexedIterable&lt;T&gt; </text>
</a>
</g>
<g><a xlink:href="http://docs.oracle.com/javase/7/docs/api/repast/simphony/util/collections/IndexedIterable.html" xlink:title="&lt;TABLE&gt;">
</a>
</g>
</g>
<!-- c104&#45;&gt;c123 -->
<g id="edge11" class="edge"><title>c104:p&#45;&gt;c123:p</title>
<path fill="none" stroke="black" d="M328.601,-231.536C395.031,-224.575 544.806,-207.356 668.979,-182 671.457,-181.494 673.979,-180.95 676.522,-180.377"/>
<polygon fill="black" stroke="black" points="686.38,-178.048 677.683,-184.727 681.514,-179.198 676.648,-180.348 676.648,-180.348 676.648,-180.348 681.514,-179.198 675.613,-175.968 686.38,-178.048 686.38,-178.048"/>
</g>
<!-- c105&#45;&gt;c121 -->
<g id="edge12" class="edge"><title>c105:p&#45;&gt;c121:p</title>
<path fill="none" stroke="black" d="M120.211,-80.9701C110.886,-69.9071 93.8732,-49.7223 81.7996,-35.3976"/>
<polygon fill="black" stroke="black" points="75.0332,-27.3698 84.9188,-32.1159 78.2556,-31.1929 81.478,-35.0161 81.478,-35.0161 81.478,-35.0161 78.2556,-31.1929 78.0372,-37.9162 75.0332,-27.3698 75.0332,-27.3698"/>
</g>
<!-- c105&#45;&gt;c122 -->
<g id="edge13" class="edge"><title>c105:p&#45;&gt;c122:p</title>
<path fill="none" stroke="black" d="M135.812,-80.9701C148.325,-69.594 171.449,-48.5724 187.263,-34.1958"/>
<polygon fill="black" stroke="black" points="194.772,-27.3698 190.4,-37.4263 191.072,-30.7331 187.373,-34.0965 187.373,-34.0965 187.373,-34.0965 191.072,-30.7331 184.346,-30.7668 194.772,-27.3698 194.772,-27.3698"/>
</g>
<!-- c107&#45;&gt;c121 -->
<g id="edge14" class="edge"><title>c107:p&#45;&gt;c121:p</title>
<path fill="none" stroke="black" d="M46.7318,-80.9701C50.3817,-70.3246 56.9275,-51.2327 61.7924,-37.0435"/>
<polygon fill="black" stroke="black" points="65.1091,-27.3698 66.1225,-38.2887 63.4874,-32.0995 61.8658,-36.8292 61.8658,-36.8292 61.8658,-36.8292 63.4874,-32.0995 57.609,-35.3697 65.1091,-27.3698 65.1091,-27.3698"/>
</g>
<!-- c107&#45;&gt;c122 -->
<g id="edge15" class="edge"><title>c107:p&#45;&gt;c122:p</title>
<path fill="none" stroke="black" d="M62.3328,-80.9701C90.154,-68.7983 143.214,-45.5847 175.905,-31.2823"/>
<polygon fill="black" stroke="black" points="185.346,-27.1519 177.988,-35.2828 180.765,-29.156 176.184,-31.1601 176.184,-31.1601 176.184,-31.1601 180.765,-29.156 174.381,-27.0374 185.346,-27.1519 185.346,-27.1519"/>
</g>
<!-- c108&#45;&gt;c105 -->
<g id="edge18" class="edge"><title>c108:p&#45;&gt;c105:p</title>
<path fill="none" stroke="black" d="M187.178,-153.855C176.111,-142.3 155.646,-120.932 141.678,-106.348"/>
<polygon fill="black" stroke="black" points="134.688,-99.0496 144.855,-103.159 138.147,-102.661 141.605,-106.272 141.605,-106.272 141.605,-106.272 138.147,-102.661 138.355,-109.384 134.688,-99.0496 134.688,-99.0496"/>
</g>
<!-- c108&#45;&gt;c121 -->
<g id="edge16" class="edge"><title>c108:p&#45;&gt;c121:p</title>
<path fill="none" stroke="black" d="M194.926,-153.816C194.402,-136.732 190.963,-96.8094 170.979,-72 152.297,-48.8075 120.763,-34.7122 97.4972,-26.95"/>
<polygon fill="black" stroke="black" points="87.7799,-23.9111 98.6673,-22.601 92.552,-25.4035 97.3241,-26.8959 97.3241,-26.8959 97.3241,-26.8959 92.552,-25.4035 95.9809,-31.1908 87.7799,-23.9111 87.7799,-23.9111"/>
</g>
<!-- c108&#45;&gt;c122 -->
<g id="edge17" class="edge"><title>c108:p&#45;&gt;c122:p</title>
<path fill="none" stroke="black" d="M196.814,-153.636C199.031,-143.068 202.63,-124.292 203.979,-108 205.996,-83.6315 205.519,-55.3812 204.861,-37.3601"/>
<polygon fill="black" stroke="black" points="204.438,-27.3627 209.357,-37.1633 204.649,-32.3582 204.861,-37.3537 204.861,-37.3537 204.861,-37.3537 204.649,-32.3582 200.365,-37.5442 204.438,-27.3627 204.438,-27.3627"/>
</g>
<!-- c116 -->
<g id="node5" class="node"><title>c116</title>
<g id="a_node5"><a xlink:href="http://docs.oracle.com/javase/7/docs/api/repast/simphony/dataLoader/ContextBuilder.html" xlink:title="&lt;TABLE&gt;">
</a>
</g>
<g id="a_node5_11"><a xlink:href="http://docs.oracle.com/javase/7/docs/api/repast/simphony/dataLoader/ContextBuilder.html" xlink:title="repast.simphony.dataLoader.ContextBuilder" target="_parent">
<polygon fill="none" stroke="black" points="245.979,-294 245.979,-324 341.979,-324 341.979,-294 245.979,-294"/>
<text text-anchor="start" x="266.462" y="-312" font-family="Helvetica,sans-Serif" font-size="10.00"> «interface» </text>
<text text-anchor="start" x="249.511" y="-300" font-family="Helvetica,sans-Serif" font-size="10.00"> ContextBuilder&lt;T&gt; </text>
</a>
</g>
<g><a xlink:href="http://docs.oracle.com/javase/7/docs/api/repast/simphony/dataLoader/ContextBuilder.html" xlink:title="&lt;TABLE&gt;">
</a>
</g>
</g>
<!-- c116&#45;&gt;c104 -->
<g id="edge1" class="edge"><title>c116:p&#45;&gt;c104:p</title>
<path fill="none" stroke="black" stroke-dasharray="5,2" d="M293.979,-283.906C293.979,-270.494 293.979,-254.651 293.979,-245.236"/>
<polygon fill="none" stroke="black" points="290.479,-283.973 293.979,-293.973 297.479,-283.973 290.479,-283.973"/>
</g>
</g>
</svg>
