<?xml version="1.0" encoding="UTF-8" standalone="no"?>
<!DOCTYPE svg PUBLIC "-//W3C//DTD SVG 1.1//EN"
 "http://www.w3.org/Graphics/SVG/1.1/DTD/svg11.dtd">
<!-- Generated by graphviz version 2.38.0 (20140413.2041)
 -->
<!-- Title: G Pages: 1 -->
<svg width="381pt" height="262pt"
 viewBox="0.00 0.00 381.47 262.00" xmlns="http://www.w3.org/2000/svg" xmlns:xlink="http://www.w3.org/1999/xlink">
<g id="graph0" class="graph" transform="scale(1 1) rotate(0) translate(4 258)">
<title>G</title>
<polygon fill="white" stroke="none" points="-4,4 -4,-258 377.467,-258 377.467,4 -4,4"/>
<!-- c89 -->
<g id="node1" class="node"><title>c89</title>
<g id="a_node1"><a xlink:href="./Cms_builder.html" xlink:title="&lt;TABLE&gt;">
</a>
</g>
<g id="a_node1_0"><a xlink:href="./Cms_builder.html" xlink:title="cms.Cms_builder" target="_parent">
<polygon fill="lemonChiffon" stroke="none" points="123.467,-227 123.467,-245 192.467,-245 192.467,-227 123.467,-227"/>
<polygon fill="none" stroke="black" points="123.967,-227 123.967,-245 192.967,-245 192.967,-227 123.967,-227"/>
<text text-anchor="start" x="127.622" y="-233" font-family="Helvetica,sans-Serif" font-size="10.00"> Cms_builder </text>
</a>
</g>
<g><a xlink:href="./Cms_builder.html" xlink:title="&lt;TABLE&gt;">
</a>
</g>
</g>
<!-- c90 -->
<g id="node2" class="node"><title>c90</title>
<g id="a_node2"><a xlink:href="./agents/Producer.html" xlink:title="&lt;TABLE&gt;">
</a>
</g>
<g id="a_node2_1"><a xlink:href="./agents/Producer.html" xlink:title="cms.agents.Producer" target="_parent">
<polygon fill="none" stroke="black" points="99.9672,-81 99.9672,-99 153.967,-99 153.967,-81 99.9672,-81"/>
<text text-anchor="start" x="103.901" y="-87" font-family="Helvetica,sans-Serif" font-size="10.00"> Producer </text>
</a>
</g>
<g><a xlink:href="./agents/Producer.html" xlink:title="&lt;TABLE&gt;">
</a>
</g>
</g>
<!-- c89&#45;&gt;c90 -->
<g id="edge1" class="edge"><title>c89:p&#45;&gt;c90:p</title>
<path fill="none" stroke="black" d="M156.212,-226.845C151.352,-204.272 137.636,-140.558 130.858,-109.071"/>
<polygon fill="black" stroke="black" points="128.703,-99.0652 135.207,-107.894 129.756,-103.953 130.808,-108.841 130.808,-108.841 130.808,-108.841 129.756,-103.953 126.409,-109.788 128.703,-99.0652 128.703,-99.0652"/>
</g>
<!-- c92 -->
<g id="node3" class="node"><title>c92</title>
<g id="a_node3"><a xlink:href="./agents/Market.html" xlink:title="&lt;TABLE&gt;">
</a>
</g>
<g id="a_node3_2"><a xlink:href="./agents/Market.html" xlink:title="cms.agents.Market" target="_parent">
<polygon fill="none" stroke="black" points="21.9672,-81 21.9672,-99 65.9672,-99 65.9672,-81 21.9672,-81"/>
<text text-anchor="start" x="25.9081" y="-87" font-family="Helvetica,sans-Serif" font-size="10.00"> Market </text>
</a>
</g>
<g><a xlink:href="./agents/Market.html" xlink:title="&lt;TABLE&gt;">
</a>
</g>
</g>
<!-- c89&#45;&gt;c92 -->
<g id="edge3" class="edge"><title>c89:p&#45;&gt;c92:p</title>
<path fill="none" stroke="black" d="M151.511,-226.845C133.249,-203.777 80.9726,-137.744 56.6713,-107.047"/>
<polygon fill="black" stroke="black" points="50.3522,-99.0652 60.0875,-104.113 53.4557,-102.985 56.5593,-106.906 56.5593,-106.906 56.5593,-106.906 53.4557,-102.985 53.031,-109.699 50.3522,-99.0652 50.3522,-99.0652"/>
</g>
<!-- c93 -->
<g id="node4" class="node"><title>c93</title>
<g id="a_node4"><a xlink:href="./agents/Buyer.html" xlink:title="&lt;TABLE&gt;">
</a>
</g>
<g id="a_node4_3"><a xlink:href="./agents/Buyer.html" xlink:title="cms.agents.Buyer" target="_parent">
<polygon fill="none" stroke="black" points="167.967,-154 167.967,-172 206.967,-172 206.967,-154 167.967,-154"/>
<text text-anchor="start" x="171.627" y="-160" font-family="Helvetica,sans-Serif" font-size="10.00"> Buyer </text>
</a>
</g>
<g><a xlink:href="./agents/Buyer.html" xlink:title="&lt;TABLE&gt;">
</a>
</g>
</g>
<!-- c89&#45;&gt;c93 -->
<g id="edge2" class="edge"><title>c89:p&#45;&gt;c93:p</title>
<path fill="none" stroke="black" d="M161.294,-226.855C165.795,-215.835 173.942,-195.889 179.854,-181.416"/>
<polygon fill="black" stroke="black" points="183.679,-172.05 184.064,-183.009 181.789,-176.678 179.898,-181.307 179.898,-181.307 179.898,-181.307 181.789,-176.678 175.732,-179.606 183.679,-172.05 183.679,-172.05"/>
</g>
<!-- c101 -->
<g id="node5" class="node"><title>c101</title>
<g id="a_node5"><a xlink:href="http://docs.oracle.com/javase/7/docs/api/java/util/List.html" xlink:title="&lt;TABLE&gt;">
</a>
</g>
<g id="a_node5_4"><a xlink:href="http://docs.oracle.com/javase/7/docs/api/java/util/List.html" xlink:title="java.util.List" target="_parent">
<polygon fill="none" stroke="black" points="302.967,-148 302.967,-178 365.967,-178 365.967,-148 302.967,-148"/>
<text text-anchor="start" x="306.95" y="-166" font-family="Helvetica,sans-Serif" font-size="10.00"> «interface» </text>
<text text-anchor="start" x="314.733" y="-154" font-family="Helvetica,sans-Serif" font-size="10.00"> List&lt;E&gt; </text>
</a>
</g>
<g><a xlink:href="http://docs.oracle.com/javase/7/docs/api/java/util/List.html" xlink:title="&lt;TABLE&gt;">
</a>
</g>
</g>
<!-- c89&#45;&gt;c101 -->
<g id="edge4" class="edge"><title>c89:p&#45;&gt;c101:p</title>
<path fill="none" stroke="black" d="M177.815,-226.993C205.625,-215.774 256.836,-195.116 293.016,-180.52"/>
<polygon fill="black" stroke="black" points="302.328,-176.764 294.738,-184.678 297.691,-178.634 293.054,-180.505 293.054,-180.505 293.054,-180.505 297.691,-178.634 291.371,-176.331 302.328,-176.764 302.328,-176.764"/>
</g>
<!-- c102 -->
<g id="node6" class="node"><title>c102</title>
<g id="a_node6"><a xlink:href="http://docs.oracle.com/javase/7/docs/api/java/lang/String.html" xlink:title="&lt;TABLE&gt;">
</a>
</g>
<g id="a_node6_5"><a xlink:href="http://docs.oracle.com/javase/7/docs/api/java/lang/String.html" xlink:title="java.lang.String" target="_parent">
<polygon fill="none" stroke="black" points="48.9672,-9 48.9672,-27 87.9672,-27 87.9672,-9 48.9672,-9"/>
<text text-anchor="start" x="52.6274" y="-15" font-family="Helvetica,sans-Serif" font-size="10.00"> String </text>
</a>
</g>
<g><a xlink:href="http://docs.oracle.com/javase/7/docs/api/java/lang/String.html" xlink:title="&lt;TABLE&gt;">
</a>
</g>
</g>
<!-- c89&#45;&gt;c102 -->
<g id="edge5" class="edge"><title>c89:p&#45;&gt;c102:p</title>
<path fill="none" stroke="black" d="M139.812,-226.946C105.352,-210.484 31.5344,-169.288 4.96722,-108 -1.39634,-93.3199 -1.78544,-86.5052 4.96722,-72 12.8846,-54.9928 29.2436,-41.4933 43.307,-32.3751"/>
<polygon fill="black" stroke="black" points="52.1054,-27.023 45.9006,-36.0646 47.8337,-29.6215 43.5619,-32.22 43.5619,-32.22 43.5619,-32.22 47.8337,-29.6215 41.2233,-28.3755 52.1054,-27.023 52.1054,-27.023"/>
</g>
<!-- c103 -->
<g id="node7" class="node"><title>c103</title>
<g id="a_node7"><a xlink:href="http://docs.oracle.com/javase/7/docs/api/java/util/ArrayList.html" xlink:title="&lt;TABLE&gt;">
</a>
</g>
<g id="a_node7_6"><a xlink:href="http://docs.oracle.com/javase/7/docs/api/java/util/ArrayList.html" xlink:title="java.util.ArrayList" target="_parent">
<polygon fill="none" stroke="black" points="168.967,-9 168.967,-27 238.967,-27 238.967,-9 168.967,-9"/>
<text text-anchor="start" x="172.561" y="-15" font-family="Helvetica,sans-Serif" font-size="10.00"> ArrayList&lt;E&gt; </text>
</a>
</g>
<g><a xlink:href="http://docs.oracle.com/javase/7/docs/api/java/util/ArrayList.html" xlink:title="&lt;TABLE&gt;">
</a>
</g>
</g>
<!-- c89&#45;&gt;c103 -->
<g id="edge6" class="edge"><title>c89:p&#45;&gt;c103:p</title>
<path fill="none" stroke="black" d="M175.165,-226.85C191.14,-218.218 213.928,-202.937 223.967,-182 247.234,-133.477 225.32,-67.8987 212.2,-36.7916"/>
<polygon fill="black" stroke="black" points="208.015,-27.3107 216.17,-34.6416 210.034,-31.8848 212.054,-36.4589 212.054,-36.4589 212.054,-36.4589 210.034,-31.8848 207.937,-38.2763 208.015,-27.3107 208.015,-27.3107"/>
</g>
<!-- c90&#45;&gt;c102 -->
<g id="edge7" class="edge"><title>c90:p&#45;&gt;c102:p</title>
<path fill="none" stroke="black" d="M120.199,-80.9701C110.875,-69.9071 93.8617,-49.7223 81.7881,-35.3976"/>
<polygon fill="black" stroke="black" points="75.0217,-27.3698 84.9073,-32.1159 78.2441,-31.1929 81.4665,-35.0161 81.4665,-35.0161 81.4665,-35.0161 78.2441,-31.1929 78.0257,-37.9162 75.0217,-27.3698 75.0217,-27.3698"/>
</g>
<!-- c90&#45;&gt;c103 -->
<g id="edge8" class="edge"><title>c90:p&#45;&gt;c103:p</title>
<path fill="none" stroke="black" d="M135.8,-80.9701C148.314,-69.594 171.438,-48.5724 187.252,-34.1958"/>
<polygon fill="black" stroke="black" points="194.76,-27.3698 190.388,-37.4263 191.061,-30.7331 187.361,-34.0965 187.361,-34.0965 187.361,-34.0965 191.061,-30.7331 184.334,-30.7668 194.76,-27.3698 194.76,-27.3698"/>
</g>
<!-- c92&#45;&gt;c102 -->
<g id="edge9" class="edge"><title>c92:p&#45;&gt;c102:p</title>
<path fill="none" stroke="black" d="M46.7203,-80.9701C50.3702,-70.3246 56.916,-51.2327 61.7809,-37.0435"/>
<polygon fill="black" stroke="black" points="65.0976,-27.3698 66.111,-38.2887 63.4759,-32.0995 61.8543,-36.8292 61.8543,-36.8292 61.8543,-36.8292 63.4759,-32.0995 57.5975,-35.3697 65.0976,-27.3698 65.0976,-27.3698"/>
</g>
<!-- c92&#45;&gt;c103 -->
<g id="edge10" class="edge"><title>c92:p&#45;&gt;c103:p</title>
<path fill="none" stroke="black" d="M62.3213,-80.9701C90.1425,-68.7983 143.202,-45.5847 175.893,-31.2823"/>
<polygon fill="black" stroke="black" points="185.334,-27.1519 177.977,-35.2828 180.754,-29.156 176.173,-31.1601 176.173,-31.1601 176.173,-31.1601 180.754,-29.156 174.369,-27.0374 185.334,-27.1519 185.334,-27.1519"/>
</g>
<!-- c93&#45;&gt;c90 -->
<g id="edge13" class="edge"><title>c93:p&#45;&gt;c90:p</title>
<path fill="none" stroke="black" d="M180.084,-153.855C170.409,-142.407 152.595,-121.327 140.281,-106.755"/>
<polygon fill="black" stroke="black" points="133.77,-99.0496 143.661,-103.783 136.997,-102.869 140.224,-106.688 140.224,-106.688 140.224,-106.688 136.997,-102.869 136.787,-109.592 133.77,-99.0496 133.77,-99.0496"/>
</g>
<!-- c93&#45;&gt;c102 -->
<g id="edge11" class="edge"><title>c93:p&#45;&gt;c102:p</title>
<path fill="none" stroke="black" d="M187.768,-153.871C188.999,-136.891 189.531,-97.1557 170.967,-72 153.18,-47.8967 121.22,-33.8991 97.6026,-26.4075"/>
<polygon fill="black" stroke="black" points="87.7388,-23.4974 98.6035,-22.0111 92.5345,-24.9123 97.3301,-26.3272 97.3301,-26.3272 97.3301,-26.3272 92.5345,-24.9123 96.0567,-30.6432 87.7388,-23.4974 87.7388,-23.4974"/>
</g>
<!-- c93&#45;&gt;c103 -->
<g id="edge12" class="edge"><title>c93:p&#45;&gt;c103:p</title>
<path fill="none" stroke="black" d="M190.428,-153.77C194.608,-143.342 201.399,-124.709 203.967,-108 207.682,-83.8319 206.804,-55.5342 205.592,-37.4478"/>
<polygon fill="black" stroke="black" points="204.812,-27.4083 210.073,-37.0298 205.199,-32.3933 205.587,-37.3783 205.587,-37.3783 205.587,-37.3783 205.199,-32.3933 201.1,-37.7268 204.812,-27.4083 204.812,-27.4083"/>
</g>
</g>
</svg>
