<?xml version="1.0" encoding="UTF-8" standalone="no"?>
<!DOCTYPE svg PUBLIC "-//W3C//DTD SVG 1.1//EN"
 "http://www.w3.org/Graphics/SVG/1.1/DTD/svg11.dtd">
<!-- Generated by graphviz version 2.38.0 (20140413.2041)
 -->
<!-- Title: G Pages: 1 -->
<svg width="690pt" height="118pt"
 viewBox="0.00 0.00 689.50 118.00" xmlns="http://www.w3.org/2000/svg" xmlns:xlink="http://www.w3.org/1999/xlink">
<g id="graph0" class="graph" transform="scale(1 1) rotate(0) translate(4 114)">
<title>G</title>
<polygon fill="white" stroke="none" points="-4,4 -4,-114 685.5,-114 685.5,4 -4,4"/>
<!-- c125 -->
<g id="node1" class="node"><title>c125</title>
<g id="a_node1"><a xlink:href="../agents/Producer.html" xlink:title="&lt;TABLE&gt;">
</a>
</g>
<g id="a_node1_0"><a xlink:href="../agents/Producer.html" xlink:title="cms.agents.Producer" target="_parent">
<polygon fill="none" stroke="black" points="8,-10 8,-28 62,-28 62,-10 8,-10"/>
<text text-anchor="start" x="11.9336" y="-16" font-family="Helvetica,sans-Serif" font-size="10.00"> Producer </text>
</a>
</g>
<g><a xlink:href="../agents/Producer.html" xlink:title="&lt;TABLE&gt;">
</a>
</g>
</g>
<!-- c129 -->
<g id="node2" class="node"><title>c129</title>
<g id="a_node2"><a xlink:href="./Cms_scheduler.html" xlink:title="&lt;TABLE&gt;">
</a>
</g>
<g id="a_node2_1"><a xlink:href="./Cms_scheduler.html" xlink:title="cms.dynamics.Cms_scheduler" target="_parent">
<polygon fill="lemonChiffon" stroke="none" points="281.5,-83 281.5,-101 364.5,-101 364.5,-83 281.5,-83"/>
<polygon fill="none" stroke="black" points="282,-83 282,-101 365,-101 365,-83 282,-83"/>
<text text-anchor="start" x="285.985" y="-89" font-family="Helvetica,sans-Serif" font-size="10.00"> Cms_scheduler </text>
</a>
</g>
<g><a xlink:href="./Cms_scheduler.html" xlink:title="&lt;TABLE&gt;">
</a>
</g>
</g>
<!-- c129&#45;&gt;c125 -->
<g id="edge6" class="edge"><title>c129:p&#45;&gt;c125:p</title>
<path fill="none" stroke="black" d="M281.418,-84.2497C232.394,-75.7698 148.757,-59.6627 79,-38 73.4826,-36.2866 67.6927,-34.1644 62.1919,-31.985"/>
<polygon fill="black" stroke="black" points="52.7239,-28.0764 63.6844,-27.7328 57.3456,-29.9844 61.9673,-31.8923 61.9673,-31.8923 61.9673,-31.8923 57.3456,-29.9844 60.2501,-36.0519 52.7239,-28.0764 52.7239,-28.0764"/>
</g>
<!-- c136 -->
<g id="node3" class="node"><title>c136</title>
<g id="a_node3"><a xlink:href="http://docs.oracle.com/javase/7/docs/api/repast/simphony/util/collections/IndexedIterable.html" xlink:title="&lt;TABLE&gt;">
</a>
</g>
<g id="a_node3_2"><a xlink:href="http://docs.oracle.com/javase/7/docs/api/repast/simphony/util/collections/IndexedIterable.html" xlink:title="repast.simphony.util.collections.IndexedIterable" target="_parent">
<polygon fill="none" stroke="black" points="96,-4 96,-34 196,-34 196,-4 96,-4"/>
<text text-anchor="start" x="118.483" y="-22" font-family="Helvetica,sans-Serif" font-size="10.00"> «interface» </text>
<text text-anchor="start" x="99.8574" y="-10" font-family="Helvetica,sans-Serif" font-size="10.00"> IndexedIterable&lt;T&gt; </text>
</a>
</g>
<g><a xlink:href="http://docs.oracle.com/javase/7/docs/api/repast/simphony/util/collections/IndexedIterable.html" xlink:title="&lt;TABLE&gt;">
</a>
</g>
</g>
<!-- c129&#45;&gt;c136 -->
<g id="edge1" class="edge"><title>c129:p&#45;&gt;c136:p</title>
<path fill="none" stroke="black" d="M303.04,-82.9934C275.901,-72.1072 226.606,-52.3333 190.462,-37.835"/>
<polygon fill="black" stroke="black" points="181.112,-34.0847 192.069,-33.6312 185.753,-35.9462 190.394,-37.8077 190.394,-37.8077 190.394,-37.8077 185.753,-35.9462 188.718,-41.9842 181.112,-34.0847 181.112,-34.0847"/>
</g>
<!-- c137 -->
<g id="node4" class="node"><title>c137</title>
<g id="a_node4"><a xlink:href="http://docs.oracle.com/javase/7/docs/api/repast/simphony/context/Context.html" xlink:title="&lt;TABLE&gt;">
</a>
</g>
<g id="a_node4_3"><a xlink:href="http://docs.oracle.com/javase/7/docs/api/repast/simphony/context/Context.html" xlink:title="repast.simphony.context.Context" target="_parent">
<polygon fill="none" stroke="black" points="231,-4 231,-34 296,-34 296,-4 231,-4"/>
<text text-anchor="start" x="235.983" y="-22" font-family="Helvetica,sans-Serif" font-size="10.00"> «interface» </text>
<text text-anchor="start" x="234.596" y="-10" font-family="Helvetica,sans-Serif" font-size="10.00"> Context&lt;T&gt; </text>
</a>
</g>
<g><a xlink:href="http://docs.oracle.com/javase/7/docs/api/repast/simphony/context/Context.html" xlink:title="&lt;TABLE&gt;">
</a>
</g>
</g>
<!-- c129&#45;&gt;c137 -->
<g id="edge2" class="edge"><title>c129:p&#45;&gt;c137:p</title>
<path fill="none" stroke="black" d="M316.117,-82.8554C307.729,-72.9291 293.222,-55.7627 281.486,-41.8755"/>
<polygon fill="black" stroke="black" points="274.964,-34.1574 284.856,-38.8908 278.191,-37.9764 281.419,-41.7953 281.419,-41.7953 281.419,-41.7953 278.191,-37.9764 277.982,-44.6999 274.964,-34.1574 274.964,-34.1574"/>
</g>
<!-- c140 -->
<g id="node5" class="node"><title>c140</title>
<g id="a_node5"><a xlink:href="http://docs.oracle.com/javase/7/docs/api/repast/simphony/engine/schedule/ScheduleParameters.html" xlink:title="&lt;TABLE&gt;">
</a>
</g>
<g id="a_node5_4"><a xlink:href="http://docs.oracle.com/javase/7/docs/api/repast/simphony/engine/schedule/ScheduleParameters.html" xlink:title="repast.simphony.engine.schedule.ScheduleParameters" target="_parent">
<polygon fill="none" stroke="black" points="330,-10 330,-28 436,-28 436,-10 330,-10"/>
<text text-anchor="start" x="333.53" y="-16" font-family="Helvetica,sans-Serif" font-size="10.00"> ScheduleParameters </text>
</a>
</g>
<g><a xlink:href="http://docs.oracle.com/javase/7/docs/api/repast/simphony/engine/schedule/ScheduleParameters.html" xlink:title="&lt;TABLE&gt;">
</a>
</g>
</g>
<!-- c129&#45;&gt;c140 -->
<g id="edge3" class="edge"><title>c129:p&#45;&gt;c140:p</title>
<path fill="none" stroke="black" d="M329.883,-82.8554C339.558,-71.4067 357.372,-50.3266 369.686,-35.755"/>
<polygon fill="black" stroke="black" points="376.198,-28.0496 373.18,-38.5922 372.97,-31.8686 369.743,-35.6876 369.743,-35.6876 369.743,-35.6876 372.97,-31.8686 366.306,-32.783 376.198,-28.0496 376.198,-28.0496"/>
</g>
<!-- c142 -->
<g id="node6" class="node"><title>c142</title>
<g id="a_node6"><a xlink:href="http://docs.oracle.com/javase/7/docs/api/repast/simphony/engine/schedule/DefaultActionFactory.html" xlink:title="&lt;TABLE&gt;">
</a>
</g>
<g id="a_node6_5"><a xlink:href="http://docs.oracle.com/javase/7/docs/api/repast/simphony/engine/schedule/DefaultActionFactory.html" xlink:title="repast.simphony.engine.schedule.DefaultActionFactory" target="_parent">
<polygon fill="none" stroke="black" points="470,-10 470,-28 576,-28 576,-10 470,-10"/>
<text text-anchor="start" x="473.813" y="-16" font-family="Helvetica,sans-Serif" font-size="10.00"> DefaultActionFactory </text>
</a>
</g>
<g><a xlink:href="http://docs.oracle.com/javase/7/docs/api/repast/simphony/engine/schedule/DefaultActionFactory.html" xlink:title="&lt;TABLE&gt;">
</a>
</g>
</g>
<!-- c129&#45;&gt;c142 -->
<g id="edge4" class="edge"><title>c129:p&#45;&gt;c142:p</title>
<path fill="none" stroke="black" d="M345.554,-82.9934C381.039,-70.396 450.05,-45.8973 490.763,-31.4442"/>
<polygon fill="black" stroke="black" points="500.222,-28.0863 492.303,-35.6725 495.51,-29.759 490.798,-31.4318 490.798,-31.4318 490.798,-31.4318 495.51,-29.759 489.293,-27.1911 500.222,-28.0863 500.222,-28.0863"/>
</g>
<!-- c143 -->
<g id="node7" class="node"><title>c143</title>
<g id="a_node7"><a xlink:href="http://docs.oracle.com/javase/7/docs/api/repast/simphony/engine/schedule/IAction.html" xlink:title="&lt;TABLE&gt;">
</a>
</g>
<g id="a_node7_6"><a xlink:href="http://docs.oracle.com/javase/7/docs/api/repast/simphony/engine/schedule/IAction.html" xlink:title="repast.simphony.engine.schedule.IAction" target="_parent">
<polygon fill="none" stroke="black" points="611,-4 611,-34 674,-34 674,-4 611,-4"/>
<text text-anchor="start" x="614.983" y="-22" font-family="Helvetica,sans-Serif" font-size="10.00"> «interface» </text>
<text text-anchor="start" x="624.436" y="-10" font-family="Helvetica,sans-Serif" font-size="10.00"> IAction </text>
</a>
</g>
<g><a xlink:href="http://docs.oracle.com/javase/7/docs/api/repast/simphony/engine/schedule/IAction.html" xlink:title="&lt;TABLE&gt;">
</a>
</g>
</g>
<!-- c129&#45;&gt;c143 -->
<g id="edge5" class="edge"><title>c129:p&#45;&gt;c143:p</title>
<path fill="none" stroke="black" d="M364.645,-84.924C418.092,-76.6493 513.418,-60.277 593,-38 595.57,-37.2805 598.198,-36.4882 600.836,-35.6496"/>
<polygon fill="black" stroke="black" points="610.346,-32.4562 602.299,-39.9053 605.606,-34.0478 600.866,-35.6394 600.866,-35.6394 600.866,-35.6394 605.606,-34.0478 599.434,-31.3734 610.346,-32.4562 610.346,-32.4562"/>
</g>
</g>
</svg>
