<?xml version="1.0" encoding="UTF-8" standalone="no"?>
<!DOCTYPE svg PUBLIC "-//W3C//DTD SVG 1.1//EN"
 "http://www.w3.org/Graphics/SVG/1.1/DTD/svg11.dtd">
<!-- Generated by graphviz version 2.38.0 (20140413.2041)
 -->
<!-- Title: G Pages: 1 -->
<svg width="107pt" height="116pt"
 viewBox="0.00 0.00 107.00 116.00" xmlns="http://www.w3.org/2000/svg" xmlns:xlink="http://www.w3.org/1999/xlink">
<g id="graph0" class="graph" transform="scale(1 1) rotate(0) translate(4 112)">
<title>G</title>
<polygon fill="white" stroke="none" points="-4,4 -4,-112 103,-112 103,4 -4,4"/>
<!-- c105 -->
<g id="node1" class="node"><title>c105</title>
<g id="a_node1"><a xlink:href="../agents/Producer.html" xlink:title="&lt;TABLE&gt;">
</a>
</g>
<g id="a_node1_0"><a xlink:href="../agents/Producer.html" xlink:title="cms.agents.Producer" target="_parent">
<polygon fill="none" stroke="black" points="22.5,-9 22.5,-27 76.5,-27 76.5,-9 22.5,-9"/>
<text text-anchor="start" x="26.4336" y="-15" font-family="Helvetica,sans-Serif" font-size="10.00"> Producer </text>
</a>
</g>
<g><a xlink:href="../agents/Producer.html" xlink:title="&lt;TABLE&gt;">
</a>
</g>
</g>
<!-- c109 -->
<g id="node2" class="node"><title>c109</title>
<g id="a_node2"><a xlink:href="./Cms_scheduler.html" xlink:title="&lt;TABLE&gt;">
</a>
</g>
<g id="a_node2_1"><a xlink:href="./Cms_scheduler.html" xlink:title="cms.dynamics.Cms_scheduler" target="_parent">
<polygon fill="lemonChiffon" stroke="none" points="8,-81 8,-99 91,-99 91,-81 8,-81"/>
<polygon fill="none" stroke="black" points="8.5,-81 8.5,-99 91.5,-99 91.5,-81 8.5,-81"/>
<text text-anchor="start" x="12.4854" y="-87" font-family="Helvetica,sans-Serif" font-size="10.00"> Cms_scheduler </text>
</a>
</g>
<g><a xlink:href="./Cms_scheduler.html" xlink:title="&lt;TABLE&gt;">
</a>
</g>
</g>
<!-- c109&#45;&gt;c105 -->
<g id="edge1" class="edge"><title>c109:p&#45;&gt;c105:p</title>
<path fill="none" stroke="black" d="M49.5,-80.9701C49.5,-70.4289 49.5,-51.6062 49.5,-37.4623"/>
<polygon fill="black" stroke="black" points="49.5,-27.3698 54.0001,-37.3697 49.5,-32.3698 49.5001,-37.3698 49.5001,-37.3698 49.5001,-37.3698 49.5,-32.3698 45.0001,-37.3698 49.5,-27.3698 49.5,-27.3698"/>
</g>
</g>
</svg>
