<?xml version="1.0" encoding="UTF-8" standalone="no"?>
<!DOCTYPE svg PUBLIC "-//W3C//DTD SVG 1.1//EN"
 "http://www.w3.org/Graphics/SVG/1.1/DTD/svg11.dtd">
<!-- Generated by graphviz version 2.38.0 (20140413.2041)
 -->
<!-- Title: G Pages: 1 -->
<svg width="100pt" height="188pt"
 viewBox="0.00 0.00 100.00 188.00" xmlns="http://www.w3.org/2000/svg" xmlns:xlink="http://www.w3.org/1999/xlink">
<g id="graph0" class="graph" transform="scale(1 1) rotate(0) translate(4 184)">
<title>G</title>
<polygon fill="white" stroke="none" points="-4,4 -4,-184 96,-184 96,4 -4,4"/>
<!-- c148 -->
<g id="node1" class="node"><title>c148</title>
<g id="a_node1"><a xlink:href="../agents/Buyer.html" xlink:title="&lt;TABLE&gt;">
</a>
</g>
<g id="a_node1_0"><a xlink:href="../agents/Buyer.html" xlink:title="cms.agents.Buyer" target="_parent">
<polygon fill="none" stroke="black" points="45.5,-153 45.5,-171 84.5,-171 84.5,-153 45.5,-153"/>
<text text-anchor="start" x="49.1602" y="-159" font-family="Helvetica,sans-Serif" font-size="10.00"> Buyer </text>
</a>
</g>
<g><a xlink:href="../agents/Buyer.html" xlink:title="&lt;TABLE&gt;">
</a>
</g>
</g>
<!-- c155 -->
<g id="node2" class="node"><title>c155</title>
<g id="a_node2"><a xlink:href="./Contract.html" xlink:title="&lt;TABLE&gt;">
</a>
</g>
<g id="a_node2_1"><a xlink:href="./Contract.html" xlink:title="cms.utils.Contract" target="_parent">
<polygon fill="lemonChiffon" stroke="none" points="8,-81 8,-99 59,-99 59,-81 8,-81"/>
<polygon fill="none" stroke="black" points="8.5,-81 8.5,-99 59.5,-99 59.5,-81 8.5,-81"/>
<text text-anchor="start" x="12.3252" y="-87" font-family="Helvetica,sans-Serif" font-size="10.00"> Contract </text>
</a>
</g>
<g><a xlink:href="./Contract.html" xlink:title="&lt;TABLE&gt;">
</a>
</g>
</g>
<!-- c148&#45;&gt;c155 -->
<g id="edge2" class="edge"><title>c148:p&#45;&gt;c155:p</title>
<path fill="none" stroke="black" d="M60.9439,-152.97C56.1832,-142.22 47.6083,-122.858 41.3065,-108.628"/>
<polygon fill="black" stroke="black" points="37.2066,-99.3698 45.3705,-106.691 39.2313,-103.942 41.2559,-108.513 41.2559,-108.513 41.2559,-108.513 39.2313,-103.942 37.1414,-110.335 37.2066,-99.3698 37.2066,-99.3698"/>
</g>
<!-- c156 -->
<g id="node3" class="node"><title>c156</title>
<g id="a_node3"><a xlink:href="http://docs.oracle.com/javase/7/docs/api/java/lang/String.html" xlink:title="&lt;TABLE&gt;">
</a>
</g>
<g id="a_node3_2"><a xlink:href="http://docs.oracle.com/javase/7/docs/api/java/lang/String.html" xlink:title="java.lang.String" target="_parent">
<polygon fill="none" stroke="black" points="45.5,-9 45.5,-27 84.5,-27 84.5,-9 45.5,-9"/>
<text text-anchor="start" x="49.1602" y="-15" font-family="Helvetica,sans-Serif" font-size="10.00"> String </text>
</a>
</g>
<g><a xlink:href="http://docs.oracle.com/javase/7/docs/api/java/lang/String.html" xlink:title="&lt;TABLE&gt;">
</a>
</g>
</g>
<!-- c148&#45;&gt;c156 -->
<g id="edge1" class="edge"><title>c148:p&#45;&gt;c156:p</title>
<path fill="none" stroke="black" d="M66.9458,-152.835C69.8999,-142.508 74.6972,-124.127 76.5,-108 78.2776,-92.0991 78.2776,-87.9009 76.5,-72 75.176,-60.1571 72.2372,-47.098 69.5993,-36.9061"/>
<polygon fill="black" stroke="black" points="66.9458,-27.1653 73.916,-35.6309 68.26,-31.9895 69.5742,-36.8137 69.5742,-36.8137 69.5742,-36.8137 68.26,-31.9895 65.2325,-37.9965 66.9458,-27.1653 66.9458,-27.1653"/>
</g>
<!-- c155&#45;&gt;c156 -->
<g id="edge3" class="edge"><title>c155:p&#45;&gt;c156:p</title>
<path fill="none" stroke="black" d="M37.0561,-80.9701C41.8168,-70.2202 50.3917,-50.8575 56.6935,-36.6276"/>
<polygon fill="black" stroke="black" points="60.7934,-27.3698 60.8586,-38.3355 58.7687,-31.9415 56.7441,-36.5133 56.7441,-36.5133 56.7441,-36.5133 58.7687,-31.9415 52.6295,-34.6911 60.7934,-27.3698 60.7934,-27.3698"/>
</g>
</g>
</svg>
