<?xml version="1.0" encoding="UTF-8" standalone="no"?>
<!DOCTYPE svg PUBLIC "-//W3C//DTD SVG 1.1//EN"
 "http://www.w3.org/Graphics/SVG/1.1/DTD/svg11.dtd">
<!-- Generated by graphviz version 2.38.0 (20140413.2041)
 -->
<!-- Title: G Pages: 1 -->
<svg width="128pt" height="118pt"
 viewBox="0.00 0.00 128.00 118.00" xmlns="http://www.w3.org/2000/svg" xmlns:xlink="http://www.w3.org/1999/xlink">
<g id="graph0" class="graph" transform="scale(1 1) rotate(0) translate(4 114)">
<title>G</title>
<polygon fill="white" stroke="none" points="-4,4 -4,-114 124,-114 124,4 -4,4"/>
<!-- c167 -->
<g id="node1" class="node"><title>c167</title>
<g id="a_node1"><a xlink:href="./ContractComparator.html" xlink:title="&lt;TABLE&gt;">
</a>
</g>
<g id="a_node1_0"><a xlink:href="./ContractComparator.html" xlink:title="cms.utils.ContractComparator" target="_parent">
<polygon fill="lemonChiffon" stroke="none" points="8,-9 8,-27 112,-27 112,-9 8,-9"/>
<polygon fill="none" stroke="black" points="8,-9 8,-27 112,-27 112,-9 8,-9"/>
<text text-anchor="start" x="11.9263" y="-15" font-family="Helvetica,sans-Serif" font-size="10.00"> ContractComparator </text>
</a>
</g>
<g><a xlink:href="./ContractComparator.html" xlink:title="&lt;TABLE&gt;">
</a>
</g>
</g>
<!-- c169 -->
<g id="node2" class="node"><title>c169</title>
<g id="a_node2"><a xlink:href="http://docs.oracle.com/javase/7/docs/api/java/util/Comparator.html" xlink:title="&lt;TABLE&gt;">
</a>
</g>
<g id="a_node2_1"><a xlink:href="http://docs.oracle.com/javase/7/docs/api/java/util/Comparator.html" xlink:title="java.util.Comparator" target="_parent">
<polygon fill="none" stroke="black" points="18,-76 18,-106 102,-106 102,-76 18,-76"/>
<text text-anchor="start" x="32.4829" y="-94" font-family="Helvetica,sans-Serif" font-size="10.00"> «interface» </text>
<text text-anchor="start" x="21.9287" y="-82" font-family="Helvetica,sans-Serif" font-size="10.00"> Comparator&lt;T&gt; </text>
</a>
</g>
<g><a xlink:href="http://docs.oracle.com/javase/7/docs/api/java/util/Comparator.html" xlink:title="&lt;TABLE&gt;">
</a>
</g>
</g>
<!-- c169&#45;&gt;c167 -->
<g id="edge1" class="edge"><title>c169:p&#45;&gt;c167:p</title>
<path fill="none" stroke="black" stroke-dasharray="5,2" d="M60,-65.9065C60,-52.494 60,-36.651 60,-27.2357"/>
<polygon fill="none" stroke="black" points="56.5001,-65.9726 60,-75.9727 63.5001,-65.9727 56.5001,-65.9726"/>
</g>
</g>
</svg>
