<?xml version="1.0" encoding="UTF-8" standalone="no"?>
<!DOCTYPE svg PUBLIC "-//W3C//DTD SVG 1.1//EN"
 "http://www.w3.org/Graphics/SVG/1.1/DTD/svg11.dtd">
<!-- Generated by graphviz version 2.38.0 (20140413.2041)
 -->
<!-- Title: G Pages: 1 -->
<svg width="178pt" height="188pt"
 viewBox="0.00 0.00 177.95 188.00" xmlns="http://www.w3.org/2000/svg" xmlns:xlink="http://www.w3.org/1999/xlink">
<g id="graph0" class="graph" transform="scale(1 1) rotate(0) translate(4 184)">
<title>G</title>
<polygon fill="white" stroke="none" points="-4,4 -4,-184 173.952,-184 173.952,4 -4,4"/>
<!-- c174 -->
<g id="node1" class="node"><title>c174</title>
<g id="a_node1"><a xlink:href="../agents/Buyer.html" xlink:title="&lt;TABLE&gt;">
</a>
</g>
<g id="a_node1_0"><a xlink:href="../agents/Buyer.html" xlink:title="cms.agents.Buyer" target="_parent">
<polygon fill="none" stroke="black" points="112.5,-153 112.5,-171 151.5,-171 151.5,-153 112.5,-153"/>
<text text-anchor="start" x="116.16" y="-159" font-family="Helvetica,sans-Serif" font-size="10.00"> Buyer </text>
</a>
</g>
<g><a xlink:href="../agents/Buyer.html" xlink:title="&lt;TABLE&gt;">
</a>
</g>
</g>
<!-- c179 -->
<g id="node2" class="node"><title>c179</title>
<g id="a_node2"><a xlink:href="./DemandFunctionParameters.html" xlink:title="&lt;TABLE&gt;">
</a>
</g>
<g id="a_node2_1"><a xlink:href="./DemandFunctionParameters.html" xlink:title="cms.utils.DemandFunctionParameters" target="_parent">
<polygon fill="lemonChiffon" stroke="none" points="8,-81 8,-99 149,-99 149,-81 8,-81"/>
<polygon fill="none" stroke="black" points="8.5,-81 8.5,-99 149.5,-99 149.5,-81 8.5,-81"/>
<text text-anchor="start" x="12.3032" y="-87" font-family="Helvetica,sans-Serif" font-size="10.00"> DemandFunctionParameters </text>
</a>
</g>
<g><a xlink:href="./DemandFunctionParameters.html" xlink:title="&lt;TABLE&gt;">
</a>
</g>
</g>
<!-- c174&#45;&gt;c179 -->
<g id="edge2" class="edge"><title>c174:p&#45;&gt;c179:p</title>
<path fill="none" stroke="black" d="M125.42,-152.97C117.044,-141.907 101.761,-121.722 90.9154,-107.398"/>
<polygon fill="black" stroke="black" points="84.8371,-99.3698 94.4612,-104.626 87.8553,-103.356 90.8735,-107.342 90.8735,-107.342 90.8735,-107.342 87.8553,-103.356 87.2859,-110.059 84.8371,-99.3698 84.8371,-99.3698"/>
</g>
<!-- c182 -->
<g id="node3" class="node"><title>c182</title>
<g id="a_node3"><a xlink:href="http://docs.oracle.com/javase/7/docs/api/java/lang/String.html" xlink:title="&lt;TABLE&gt;">
</a>
</g>
<g id="a_node3_2"><a xlink:href="http://docs.oracle.com/javase/7/docs/api/java/lang/String.html" xlink:title="java.lang.String" target="_parent">
<polygon fill="none" stroke="black" points="112.5,-9 112.5,-27 151.5,-27 151.5,-9 112.5,-9"/>
<text text-anchor="start" x="116.16" y="-15" font-family="Helvetica,sans-Serif" font-size="10.00"> String </text>
</a>
</g>
<g><a xlink:href="http://docs.oracle.com/javase/7/docs/api/java/lang/String.html" xlink:title="&lt;TABLE&gt;">
</a>
</g>
</g>
<!-- c174&#45;&gt;c182 -->
<g id="edge1" class="edge"><title>c174:p&#45;&gt;c182:p</title>
<path fill="none" stroke="black" d="M139.175,-152.807C147.763,-143.023 161.171,-125.742 166.5,-108 171.103,-92.6764 171.103,-87.3236 166.5,-72 162.378,-58.2779 153.423,-44.8315 145.604,-34.916"/>
<polygon fill="black" stroke="black" points="139.175,-27.1932 149.031,-31.9993 142.374,-31.0359 145.573,-34.8785 145.573,-34.8785 145.573,-34.8785 142.374,-31.0359 142.114,-37.7577 139.175,-27.1932 139.175,-27.1932"/>
</g>
<!-- c179&#45;&gt;c182 -->
<g id="edge3" class="edge"><title>c179:p&#45;&gt;c182:p</title>
<path fill="none" stroke="black" d="M84.5798,-80.9701C92.9561,-69.9071 108.239,-49.7223 119.085,-35.3976"/>
<polygon fill="black" stroke="black" points="125.163,-27.3698 122.714,-38.0588 122.145,-31.3561 119.126,-35.3424 119.126,-35.3424 119.126,-35.3424 122.145,-31.3561 115.539,-32.626 125.163,-27.3698 125.163,-27.3698"/>
</g>
</g>
</svg>
