<?xml version="1.0" encoding="UTF-8" standalone="no"?>
<!DOCTYPE svg PUBLIC "-//W3C//DTD SVG 1.1//EN"
 "http://www.w3.org/Graphics/SVG/1.1/DTD/svg11.dtd">
<!-- Generated by graphviz version 2.38.0 (20140413.2041)
 -->
<!-- Title: G Pages: 1 -->
<svg width="190pt" height="188pt"
 viewBox="0.00 0.00 190.00 188.00" xmlns="http://www.w3.org/2000/svg" xmlns:xlink="http://www.w3.org/1999/xlink">
<g id="graph0" class="graph" transform="scale(1 1) rotate(0) translate(4 184)">
<title>G</title>
<polygon fill="white" stroke="none" points="-4,4 -4,-184 186,-184 186,4 -4,4"/>
<!-- c185 -->
<g id="node1" class="node"><title>c185</title>
<g id="a_node1"><a xlink:href="../agents/MarketSession.html" xlink:title="&lt;TABLE&gt;">
</a>
</g>
<g id="a_node1_0"><a xlink:href="../agents/MarketSession.html" xlink:title="cms.agents.MarketSession" target="_parent">
<polygon fill="none" stroke="black" points="52,-153 52,-171 131,-171 131,-153 52,-153"/>
<text text-anchor="start" x="55.6528" y="-159" font-family="Helvetica,sans-Serif" font-size="10.00"> MarketSession </text>
</a>
</g>
<g><a xlink:href="../agents/MarketSession.html" xlink:title="&lt;TABLE&gt;">
</a>
</g>
</g>
<!-- c187 -->
<g id="node2" class="node"><title>c187</title>
<g id="a_node2"><a xlink:href="../agents/Buyer.html" xlink:title="&lt;TABLE&gt;">
</a>
</g>
<g id="a_node2_1"><a xlink:href="../agents/Buyer.html" xlink:title="cms.agents.Buyer" target="_parent">
<polygon fill="none" stroke="black" points="44,-81 44,-99 83,-99 83,-81 44,-81"/>
<text text-anchor="start" x="47.6602" y="-87" font-family="Helvetica,sans-Serif" font-size="10.00"> Buyer </text>
</a>
</g>
<g><a xlink:href="../agents/Buyer.html" xlink:title="&lt;TABLE&gt;">
</a>
</g>
</g>
<!-- c185&#45;&gt;c187 -->
<g id="edge1" class="edge"><title>c185:p&#45;&gt;c187:p</title>
<path fill="none" stroke="black" d="M87.788,-152.97C83.5298,-142.325 75.8931,-123.233 70.2174,-109.044"/>
<polygon fill="black" stroke="black" points="66.3479,-99.3698 74.24,-106.983 68.2049,-104.012 70.0619,-108.655 70.0619,-108.655 70.0619,-108.655 68.2049,-104.012 65.8837,-110.326 66.3479,-99.3698 66.3479,-99.3698"/>
</g>
<!-- c191 -->
<g id="node3" class="node"><title>c191</title>
<g id="a_node3"><a xlink:href="./ElementOfSupplyOrDemandCurve.html" xlink:title="&lt;TABLE&gt;">
</a>
</g>
<g id="a_node3_2"><a xlink:href="./ElementOfSupplyOrDemandCurve.html" xlink:title="cms.utils.ElementOfSupplyOrDemandCurve" target="_parent">
<polygon fill="lemonChiffon" stroke="none" points="8,-9 8,-27 174,-27 174,-9 8,-9"/>
<polygon fill="none" stroke="black" points="8,-9 8,-27 174,-27 174,-9 8,-9"/>
<text text-anchor="start" x="11.5225" y="-15" font-family="Helvetica,sans-Serif" font-size="10.00"> ElementOfSupplyOrDemandCurve </text>
</a>
</g>
<g><a xlink:href="./ElementOfSupplyOrDemandCurve.html" xlink:title="&lt;TABLE&gt;">
</a>
</g>
</g>
<!-- c185&#45;&gt;c191 -->
<g id="edge2" class="edge"><title>c185:p&#45;&gt;c191:p</title>
<path fill="none" stroke="black" d="M92.8355,-152.793C95.0523,-142.423 98.6515,-123.996 100,-108 101.344,-92.0566 101.344,-87.9434 100,-72 99.0202,-60.3778 96.8523,-47.4727 94.8898,-37.3067"/>
<polygon fill="black" stroke="black" points="92.8355,-27.2074 99.2385,-36.1097 93.8322,-32.1071 94.8288,-37.0067 94.8288,-37.0067 94.8288,-37.0067 93.8322,-32.1071 90.4191,-37.9037 92.8355,-27.2074 92.8355,-27.2074"/>
</g>
<!-- c187&#45;&gt;c191 -->
<g id="edge3" class="edge"><title>c187:p&#45;&gt;c191:p</title>
<path fill="none" stroke="black" d="M66.212,-80.9701C70.4702,-70.3246 78.1069,-51.2327 83.7826,-37.0435"/>
<polygon fill="black" stroke="black" points="87.6521,-27.3698 88.1163,-38.3258 85.7951,-32.0122 83.9381,-36.6545 83.9381,-36.6545 83.9381,-36.6545 85.7951,-32.0122 79.76,-34.9833 87.6521,-27.3698 87.6521,-27.3698"/>
</g>
</g>
</svg>
