<?xml version="1.0" encoding="UTF-8" standalone="no"?>
<!DOCTYPE svg PUBLIC "-//W3C//DTD SVG 1.1//EN"
 "http://www.w3.org/Graphics/SVG/1.1/DTD/svg11.dtd">
<!-- Generated by graphviz version 2.38.0 (20140413.2041)
 -->
<!-- Title: G Pages: 1 -->
<svg width="243pt" height="118pt"
 viewBox="0.00 0.00 243.00 118.00" xmlns="http://www.w3.org/2000/svg" xmlns:xlink="http://www.w3.org/1999/xlink">
<g id="graph0" class="graph" transform="scale(1 1) rotate(0) translate(4 114)">
<title>G</title>
<polygon fill="white" stroke="none" points="-4,4 -4,-114 239,-114 239,4 -4,4"/>
<!-- c202 -->
<g id="node1" class="node"><title>c202</title>
<g id="a_node1"><a xlink:href="./ElementOfSupplyOrDemandCurveComparator.html" xlink:title="&lt;TABLE&gt;">
</a>
</g>
<g id="a_node1_0"><a xlink:href="./ElementOfSupplyOrDemandCurveComparator.html" xlink:title="cms.utils.ElementOfSupplyOrDemandCurveComparator" target="_parent">
<polygon fill="lemonChiffon" stroke="none" points="8,-9 8,-27 227,-27 227,-9 8,-9"/>
<polygon fill="none" stroke="black" points="8.5,-9 8.5,-27 227.5,-27 227.5,-9 8.5,-9"/>
<text text-anchor="start" x="12.1235" y="-15" font-family="Helvetica,sans-Serif" font-size="10.00"> ElementOfSupplyOrDemandCurveComparator </text>
</a>
</g>
<g><a xlink:href="./ElementOfSupplyOrDemandCurveComparator.html" xlink:title="&lt;TABLE&gt;">
</a>
</g>
</g>
<!-- c207 -->
<g id="node2" class="node"><title>c207</title>
<g id="a_node2"><a xlink:href="http://docs.oracle.com/javase/7/docs/api/java/util/Comparator.html" xlink:title="&lt;TABLE&gt;">
</a>
</g>
<g id="a_node2_1"><a xlink:href="http://docs.oracle.com/javase/7/docs/api/java/util/Comparator.html" xlink:title="java.util.Comparator" target="_parent">
<polygon fill="none" stroke="black" points="75.5,-76 75.5,-106 159.5,-106 159.5,-76 75.5,-76"/>
<text text-anchor="start" x="89.9829" y="-94" font-family="Helvetica,sans-Serif" font-size="10.00"> «interface» </text>
<text text-anchor="start" x="79.4287" y="-82" font-family="Helvetica,sans-Serif" font-size="10.00"> Comparator&lt;T&gt; </text>
</a>
</g>
<g><a xlink:href="http://docs.oracle.com/javase/7/docs/api/java/util/Comparator.html" xlink:title="&lt;TABLE&gt;">
</a>
</g>
</g>
<!-- c207&#45;&gt;c202 -->
<g id="edge1" class="edge"><title>c207:p&#45;&gt;c202:p</title>
<path fill="none" stroke="black" stroke-dasharray="5,2" d="M117.5,-65.9065C117.5,-52.494 117.5,-36.651 117.5,-27.2357"/>
<polygon fill="none" stroke="black" points="114,-65.9726 117.5,-75.9727 121,-65.9727 114,-65.9726"/>
</g>
</g>
</svg>
