<?xml version="1.0" encoding="UTF-8" standalone="no"?>
<!DOCTYPE svg PUBLIC "-//W3C//DTD SVG 1.1//EN"
 "http://www.w3.org/Graphics/SVG/1.1/DTD/svg11.dtd">
<!-- Generated by graphviz version 2.38.0 (20140413.2041)
 -->
<!-- Title: G Pages: 1 -->
<svg width="164pt" height="118pt"
 viewBox="0.00 0.00 164.00 118.00" xmlns="http://www.w3.org/2000/svg" xmlns:xlink="http://www.w3.org/1999/xlink">
<g id="graph0" class="graph" transform="scale(1 1) rotate(0) translate(4 114)">
<title>G</title>
<polygon fill="white" stroke="none" points="-4,4 -4,-114 160,-114 160,4 -4,4"/>
<!-- c228 -->
<g id="node1" class="node"><title>c228</title>
<g id="a_node1"><a xlink:href="./MarketLongitudeComparator.html" xlink:title="&lt;TABLE&gt;">
</a>
</g>
<g id="a_node1_0"><a xlink:href="./MarketLongitudeComparator.html" xlink:title="cms.utils.MarketLongitudeComparator" target="_parent">
<polygon fill="lemonChiffon" stroke="none" points="8,-9 8,-27 148,-27 148,-9 8,-9"/>
<polygon fill="none" stroke="black" points="8,-9 8,-27 148,-27 148,-9 8,-9"/>
<text text-anchor="start" x="11.5767" y="-15" font-family="Helvetica,sans-Serif" font-size="10.00"> MarketLongitudeComparator </text>
</a>
</g>
<g><a xlink:href="./MarketLongitudeComparator.html" xlink:title="&lt;TABLE&gt;">
</a>
</g>
</g>
<!-- c234 -->
<g id="node2" class="node"><title>c234</title>
<g id="a_node2"><a xlink:href="http://docs.oracle.com/javase/7/docs/api/java/util/Comparator.html" xlink:title="&lt;TABLE&gt;">
</a>
</g>
<g id="a_node2_1"><a xlink:href="http://docs.oracle.com/javase/7/docs/api/java/util/Comparator.html" xlink:title="java.util.Comparator" target="_parent">
<polygon fill="none" stroke="black" points="36,-76 36,-106 120,-106 120,-76 36,-76"/>
<text text-anchor="start" x="50.4829" y="-94" font-family="Helvetica,sans-Serif" font-size="10.00"> «interface» </text>
<text text-anchor="start" x="39.9287" y="-82" font-family="Helvetica,sans-Serif" font-size="10.00"> Comparator&lt;T&gt; </text>
</a>
</g>
<g><a xlink:href="http://docs.oracle.com/javase/7/docs/api/java/util/Comparator.html" xlink:title="&lt;TABLE&gt;">
</a>
</g>
</g>
<!-- c234&#45;&gt;c228 -->
<g id="edge1" class="edge"><title>c234:p&#45;&gt;c228:p</title>
<path fill="none" stroke="black" stroke-dasharray="5,2" d="M78,-65.9065C78,-52.494 78,-36.651 78,-27.2357"/>
<polygon fill="none" stroke="black" points="74.5001,-65.9726 78,-75.9727 81.5001,-65.9727 74.5001,-65.9726"/>
</g>
</g>
</svg>
